<?xml version="1.0" standalone="no"?>
<!DOCTYPE svg PUBLIC "-//W3C//DTD SVG 1.1//EN" "http://www.w3.org/Graphics/SVG/1.1/DTD/svg11.dtd">
<svg xmlns="http://www.w3.org/2000/svg" xmlns:xlink="http://www.w3.org/1999/xlink" data-name="Layer 1" preserveAspectRatio="xMidYMid meet" version="1.0" viewBox="3.6 4.0 56.4 56.0" zoomAndPan="magnify" style="fill: rgb(0, 0, 0);" original_string_length="4779" width="56.400001525878906" height="56"><g id="__id125_so0omlqtso"><path d="M17,22a1,1,0,0,1-1-1V17a3,3,0,0,1,2.94-3,3,3,0,0,1,0-4.2L21.8,7a3.11,3.11,0,0,1,2.14-.87A2.91,2.91,0,0,1,26,6.94,3,3,0,0,1,29,4h4a3,3,0,0,1,3,2.94,3,3,0,0,1,2.06-.83h0A3,3,0,0,1,40.2,7L43,9.8a3,3,0,0,1,0,4.25l-1.64,1.66A1,1,0,0,1,40,14.29l1.65-1.66a1,1,0,0,0,0-1.41L38.78,8.4a1,1,0,0,0-.71-.29,1,1,0,0,0-.7.28l-1.66,1.66a1,1,0,0,1-1.09.21A1,1,0,0,1,34,9.34V7a1,1,0,0,0-1-1H29a1,1,0,0,0-1,1V9.34a1,1,0,0,1-.62.92,1,1,0,0,1-1.09-.21L24.63,8.4a1,1,0,0,0-.7-.29h0a1,1,0,0,0-.71.29L20.4,11.22a1,1,0,0,0-.29.71,1,1,0,0,0,.28.7l1.66,1.66a1,1,0,0,1,.21,1.09,1,1,0,0,1-.92.62H19a1,1,0,0,0-1,1v4A1,1,0,0,1,17,22Z" style="fill: rgb(239, 239, 239);"/></g><g id="__id126_so0omlqtso"><path d="M27.54,22a1,1,0,0,1-.86-.49A5,5,0,0,1,31,14a5,5,0,0,1,4.85,3.78,1,1,0,0,1-1.94.49,3,3,0,1,0-5.5,2.24,1,1,0,0,1-.36,1.37A1,1,0,0,1,27.54,22Z" style="fill: rgb(239, 239, 239);"/></g><g id="__id127_so0omlqtso"><path d="M48.71,42H45.29a2.72,2.72,0,0,1-2.72-2.71v-2a1,1,0,0,1,2,0v2a.71.71,0,0,0,.72.71h3.42a.71.71,0,0,0,.72-.71v-2a1,1,0,0,1,.62-.92,1,1,0,0,1,1.09.21L52.56,38a.72.72,0,0,0,1,0L56,35.56a.73.73,0,0,0,0-1l-1.42-1.41a1,1,0,0,1-.21-1.09,1,1,0,0,1,.92-.62h2a.71.71,0,0,0,.71-.72V27.29a.71.71,0,0,0-.71-.72h-2a1,1,0,0,1-.92-.62,1,1,0,0,1,.21-1.09L56,23.44a.72.72,0,0,0,0-1L53.56,20a.73.73,0,0,0-1,0l-1.41,1.42a1,1,0,0,1-1.09.21,1,1,0,0,1-.62-.92v-2a.71.71,0,0,0-.72-.71H45.29a.71.71,0,0,0-.72.71v2a1,1,0,0,1-.62.92,1,1,0,0,1-1.09-.21L41.44,20a.72.72,0,0,0-1,0L38,22.44a.73.73,0,0,0,0,1l1.42,1.41A1,1,0,0,1,38,26.28l-1.42-1.42a2.73,2.73,0,0,1,0-3.84L39,18.59a2.72,2.72,0,0,1,3.57-.23A2.72,2.72,0,0,1,45.29,16h3.42a2.72,2.72,0,0,1,2.7,2.36,2.74,2.74,0,0,1,3.57.23L57.41,21a2.73,2.73,0,0,1,.23,3.57A2.72,2.72,0,0,1,60,27.29v3.42a2.72,2.72,0,0,1-2.36,2.7A2.74,2.74,0,0,1,57.41,37L55,39.41a2.73,2.73,0,0,1-3.57.23A2.72,2.72,0,0,1,48.71,42Z" style="fill: rgb(239, 239, 239);"/></g><g id="__id128_so0omlqtso"><path d="M47,33.43A4.43,4.43,0,1,1,51.43,29,4.44,4.44,0,0,1,47,33.43Zm0-6.86A2.43,2.43,0,1,0,49.43,29,2.43,2.43,0,0,0,47,26.57Z" style="fill: rgb(239, 239, 239);"/></g><g id="__id129_so0omlqtso"><path d="M17,26.73a1,1,0,0,1-.29-2,18.47,18.47,0,0,1,7.35-.65,1,1,0,0,1-.23,2,16.26,16.26,0,0,0-6.54.58A.92.92,0,0,1,17,26.73Z" style="fill: rgb(239, 239, 239);"/></g><g id="__id130_so0omlqtso"><path d="M38.25,48A1,1,0,0,1,38,48a1,1,0,0,1-.66-1.25A16.18,16.18,0,0,0,38,42a16.44,16.44,0,0,0-.11-1.86A1,1,0,0,1,38.77,39a1,1,0,0,1,1.11.88,18.2,18.2,0,0,1-.67,7.39A1,1,0,0,1,38.25,48Z" style="fill: rgb(239, 239, 239);"/></g><g id="__id131_so0omlqtso"><path d="M22,60a17.84,17.84,0,0,1-7.39-1.58,1,1,0,0,1,.82-1.83A15.77,15.77,0,0,0,22,58a16.22,16.22,0,0,0,4.66-.68A1,1,0,0,1,27.9,58a1,1,0,0,1-.66,1.25A18.11,18.11,0,0,1,22,60Z" style="fill: rgb(239, 239, 239);"/></g><g id="__id132_so0omlqtso"><path d="M6.11,49.07a1,1,0,0,1-.93-.64,18.11,18.11,0,0,1-.39-11.72A1,1,0,0,1,6,36.05,1,1,0,0,1,6.7,37.3,16.11,16.11,0,0,0,6,42a15.8,15.8,0,0,0,1,5.71A1,1,0,0,1,6.47,49,.92.92,0,0,1,6.11,49.07Z" style="fill: rgb(239, 239, 239);"/></g><g id="__id133_so0omlqtso"><path d="M10,35a5,5,0,1,1,5-5A5,5,0,0,1,10,35Zm0-8a3,3,0,1,0,3,3A3,3,0,0,0,10,27Z" style="fill: rgb(239, 239, 239);"/></g><g id="__id134_so0omlqtso"><path d="M34,59a5,5,0,1,1,5-5A5,5,0,0,1,34,59Zm0-8a3,3,0,1,0,3,3A3,3,0,0,0,34,51Z" style="fill: rgb(239, 239, 239);"/></g><g id="__id135_so0omlqtso"><path d="M21.79,52.35a1,1,0,0,1-.71-.3l-9.89-9.9a1,1,0,0,1,0-1.41L25.33,26.6a1,1,0,0,1,1.41,0l9.9,9.9a1,1,0,0,1,.29.7,1,1,0,0,1-.29.71L22.5,52.05A1,1,0,0,1,21.79,52.35Zm-8.48-10.9,8.48,8.48L34.52,37.2,26,28.72Z" style="fill: rgb(239, 239, 239);"/></g><g id="__id136_so0omlqtso"><path d="M6.77,57.47a1,1,0,0,1-.94-1.33l5.12-15a1,1,0,0,1,1.65-.38l9.9,9.9a1,1,0,0,1,.27.93,1,1,0,0,1-.65.72l-15,5.12A1,1,0,0,1,6.77,57.47Zm5.55-14.18L8.38,54.86,20,50.92Z" style="fill: rgb(239, 239, 239);"/></g><g id="__id137_so0omlqtso"><path d="M6.77,57.47a1,1,0,0,1-.94-1.33L8.05,49.6a1,1,0,0,1,1.08-.67,5.94,5.94,0,0,1,3.47,1.71,6.06,6.06,0,0,1,1.71,3.47,1,1,0,0,1-.67,1.07L7.1,57.41A1,1,0,0,1,6.77,57.47ZM9.66,51.1,8.38,54.86l3.76-1.28A4,4,0,0,0,9.66,51.1Z" style="fill: rgb(239, 239, 239);"/></g><g id="__id138_so0omlqtso"><path d="M35.93,38.62,24.62,27.3l3.54-3.53a3.08,3.08,0,0,1,4.24,0l7.07,7.07a3,3,0,0,1,0,4.24ZM27.45,27.3l8.48,8.49,2.13-2.12a1,1,0,0,0,0-1.42L31,25.18a1,1,0,0,0-1.41,0Z" style="fill: rgb(239, 239, 239);"/></g><g id="__id139_so0omlqtso"><path d="M21.79,52.35h0a1,1,0,0,1-.71-.3l-2.82-2.83a1,1,0,0,1,0-1.41L32.4,33.67a1,1,0,0,1,1.41,0l2.83,2.83a1,1,0,0,1,.29.7,1,1,0,0,1-.29.71L22.5,52.05A1,1,0,0,1,21.79,52.35Zm-1.41-3.83,1.41,1.41L34.52,37.2l-1.41-1.41Z" style="fill: rgb(239, 239, 239);"/></g><g id="__id140_so0omlqtso"><path d="M14.72,45.28A1,1,0,0,1,14,45l-2.82-2.83a1,1,0,0,1,0-1.41L25.33,26.6a1,1,0,0,1,1.41,0l2.83,2.83a1,1,0,0,1,.29.7,1,1,0,0,1-.29.71L15.43,45A1,1,0,0,1,14.72,45.28Zm-1.41-3.83,1.41,1.41L27.45,30.13,26,28.72Z" style="fill: rgb(239, 239, 239);"/></g></svg>