<?xml version="1.0" standalone="no"?>
<!DOCTYPE svg PUBLIC "-//W3C//DTD SVG 1.1//EN" "http://www.w3.org/Graphics/SVG/1.1/DTD/svg11.dtd">
<svg xmlns="http://www.w3.org/2000/svg" xmlns:xlink="http://www.w3.org/1999/xlink" preserveAspectRatio="xMidYMid meet" version="1.0" viewBox="539.4 465.4 1373.7 1521.6" zoomAndPan="magnify" style="fill: rgb(0, 0, 0);" original_string_length="1742" width="1373.699951171875" height="1521.5999755859375"><g id="__id144_so0omlqtso"><path d="M 1814.179688 719.558594 L 1879.898438 821.617188 L 1814.179688 923.675781 L 1225.65625 923.675781 L 1220.949219 719.558594 Z M 1829.394531 951.605469 L 1913.09375 821.617188 L 1829.394531 691.664062 L 1220.316406 691.664062 L 1218.402344 609.039062 C 1239.492188 594.992188 1253.425781 571.039062 1253.425781 543.804688 C 1253.425781 500.515625 1218.332031 465.433594 1175.0625 465.433594 C 1131.773438 465.433594 1096.691406 500.515625 1096.691406 543.804688 C 1096.691406 571.039062 1110.613281 594.992188 1131.703125 609.039062 L 1126.792969 821.617188 L 623.113281 821.617188 L 539.410156 951.605469 L 623.113281 1081.558594 L 1120.800781 1081.558594 L 1104.480469 1790.320312 C 1078.421875 1795.007812 1058.613281 1817.699219 1058.613281 1845.109375 L 1058.613281 1868.21875 C 1050.441406 1873.089844 1044.683594 1881.628906 1044.683594 1891.839844 L 1044.683594 1959.140625 C 1044.683594 1974.578125 1057.171875 1987.058594 1072.570312 1987.058594 L 1277.527344 1987.058594 C 1292.921875 1987.058594 1305.429688 1974.578125 1305.429688 1959.140625 L 1305.429688 1891.839844 C 1305.429688 1881.628906 1299.675781 1873.089844 1291.496094 1868.25 L 1291.496094 1845.109375 C 1291.496094 1817.699219 1271.6875 1795.007812 1245.609375 1790.320312 L 1236.820312 1408.828125 L 1717.777344 1408.828125 L 1801.476562 1278.878906 L 1717.777344 1148.886719 L 1230.835938 1148.886719 L 1226.289062 951.605469 L 1829.394531 951.605469" style="fill: rgb(239, 239, 239);"/></g></svg>