<?xml version="1.0" standalone="no"?>
<!DOCTYPE svg PUBLIC "-//W3C//DTD SVG 1.1//EN" "http://www.w3.org/Graphics/SVG/1.1/DTD/svg11.dtd">
<svg xmlns="http://www.w3.org/2000/svg" xmlns:xlink="http://www.w3.org/1999/xlink" preserveAspectRatio="xMidYMid meet" version="1.0" viewBox="-0.7 -6.5 481.7 440.2" zoomAndPan="magnify" style="fill: rgb(255, 255, 255);" original_string_length="2507" width="481.70001220703125" height="440.20001220703125"><g id="__id108_so0omlqtso"><path d="M149.961,129.37c0.158,0.193,0.326,0.38,0.506,0.56l84.299,84.299c1.283,1.283,2.929,2.008,4.62,2.164 c0.249,0.025,0.501,0.038,0.753,0.038c0.083,0,0.166-0.001,0.249-0.004c1.907-0.063,3.724-0.856,5.066-2.198l84.3-84.299 c0.175-0.176,0.341-0.359,0.496-0.55l14.833-14.833c26.169-26.17,26.169-68.75,0-94.921c-26.168-26.167-68.749-26.168-94.921,0 v0.001l-10.052,10.052l-10.052-10.053c-26.17-26.168-68.751-26.168-94.921,0.001c-26.169,26.17-26.169,68.75,0,94.919 L149.961,129.37z M145.745,30.233c9.844-9.844,22.932-15.266,36.854-15.266c13.921,0,27.009,5.422,36.853,15.265l15.355,15.356 c1.407,1.407,3.314,2.197,5.304,2.197s3.896-0.79,5.304-2.197l15.355-15.356v0.001c9.844-9.844,22.932-15.266,36.853-15.266 c13.922,0,27.01,5.422,36.854,15.265c20.321,20.322,20.321,53.387,0,73.708l-15.355,15.356c-0.179,0.178-0.346,0.363-0.502,0.555 l-78.508,78.507l-78.504-78.504c-0.158-0.192-0.326-0.378-0.506-0.558l-15.355-15.357 C125.424,83.619,125.424,50.555,145.745,30.233z M478.024,204.48c-13.514-13.512-33.852-17.791-51.567-11.146 c-5.416-2.037-11.207-3.112-17.166-3.112c-12.896,0-25.028,4.98-34.197,14.032l-55.809,47.271c0.023-0.598,0.046-1.196,0.046-1.8 c0-4.143-3.357-7.5-7.5-7.5H139.558c-24.625,0-47.776,9.59-65.189,27.002L2.197,341.398c-2.929,2.93-2.929,7.678,0,10.607 c1.465,1.464,3.385,2.196,5.304,2.196s3.839-0.732,5.304-2.196l72.172-72.172c14.579-14.58,33.964-22.609,54.582-22.609h163.876 c-3.385,14.038-16.042,24.501-31.105,24.501h-91.722c-4.143,0-7.5,3.357-7.5,7.5s3.357,7.5,7.5,7.5h91.722 c13.286,0,25.293-5.55,33.849-14.443l78.837-66.776c0.157-0.133,0.31-0.273,0.456-0.419c11.31-11.312,28.732-12.881,41.74-4.709 L307.846,329.745c-11.098,11.097-25.85,17.207-41.54,17.207h-101.47h-16.18c-13.692,0-26.565,5.332-36.248,15.014L53.5,420.873 c-2.929,2.93-2.929,7.678,0,10.607c1.465,1.464,3.384,2.196,5.304,2.196c1.919,0,3.839-0.732,5.304-2.196l58.908-58.907 c6.849-6.85,15.954-10.621,25.641-10.621h16.18h101.47h34.307c19.698,0,38.217-7.671,52.146-21.6l125.265-125.265 C480.952,212.158,480.952,207.41,478.024,204.48z M342.152,329.745c-8.266,8.267-18.563,13.761-29.764,16.028 c2.101-1.688,4.131-3.488,6.064-5.421l125.265-125.265c2.682-2.683,2.9-6.887,0.67-9.827c6.02,0.154,11.958,1.896,17.123,5.127 L342.152,329.745z" style="fill: inherit;"/></g></svg>