<?xml version="1.0" standalone="no"?>
<!DOCTYPE svg PUBLIC "-//W3C//DTD SVG 1.1//EN" "http://www.w3.org/Graphics/SVG/1.1/DTD/svg11.dtd">
<svg xmlns="http://www.w3.org/2000/svg" xmlns:xlink="http://www.w3.org/1999/xlink" preserveAspectRatio="xMidYMid meet" version="1.0" viewBox="-0.5 -0.0 189.2 188.0" zoomAndPan="magnify" style="fill: rgb(239, 239, 239);" original_string_length="1977" width="189.1999969482422" height="188"><g id="__id142_so0omlqtso"><path d="M174.64,18.21a32.56,32.56,0,0,0-21.5-2.2,11.3,11.3,0,0,0,1-4.59A11.43,11.43,0,0,0,142.69,0H45.45A11.41,11.41,0,0,0,35,16a32.53,32.53,0,0,0-21.49,2.2A23.3,23.3,0,0,0,0,38.41c-.54,11.33,6.16,35,57,66.41A52.8,52.8,0,0,0,71.5,115a71.46,71.46,0,0,0-4.14,17.32h-7a14,14,0,0,0-14,14v19.63H45.05a11,11,0,1,0,0,22.06h98a11,11,0,0,0,0-22.06h-1.31V146.31a14,14,0,0,0-14-14h-7A71,71,0,0,0,116.63,115a52.8,52.8,0,0,0,14.45-10.17c50.86-31.41,57.57-55.08,57-66.41A23.34,23.34,0,0,0,174.64,18.21ZM146.11,177a3,3,0,0,1-3,3h-98a3,3,0,1,1,0-6.06h98A3,3,0,0,1,146.11,177Zm-.58-98.54a52.89,52.89,0,0,0,1.16-11V35.81c7.91-2.61,16.06-1.39,18.92,3.13C169.37,44.88,165.46,58.07,145.53,78.43ZM45.45,8h97.24a3.43,3.43,0,0,1,0,6.85H45.45a3.43,3.43,0,1,1,0-6.85ZM22.53,38.94c2.86-4.52,11-5.74,18.92-3.13V67.46a52.89,52.89,0,0,0,1.15,11C22.68,58.07,18.76,44.88,22.53,38.94ZM8,38.79a15.3,15.3,0,0,1,9-13.4c7.2-3.54,16.78-2.81,24.42,1.73v.36c-10.7-2.71-21.12,0-25.68,7.17-3.46,5.46-5.41,16.35,9,35.44C9.61,54.68,7.78,43.84,8,38.79ZM133.77,146.31v19.52H54.36V146.31a6,6,0,0,1,6-6h67.41A6,6,0,0,1,133.77,146.31Zm-21.06-14H75.43A61.45,61.45,0,0,1,79,117.87a52.69,52.69,0,0,0,30.2,0A62,62,0,0,1,112.71,132.31ZM94.07,112.08A44.66,44.66,0,0,1,49.45,67.46V22.85h89.24V67.46A44.67,44.67,0,0,1,94.07,112.08Zm69.32-42c14.39-19.09,12.43-30,9-35.44-4.56-7.18-15-9.88-25.68-7.17v-.36c7.63-4.54,17.21-5.27,24.42-1.73a15.31,15.31,0,0,1,9,13.4C180.36,43.84,178.52,54.68,163.39,70.09Z" style="fill: inherit;"/><path d="M102.29,50.87,94.07,34.21,85.85,50.87,67.47,53.54l13.3,13L77.63,84.81l16.44-8.64,16.44,8.64L107.37,66.5l13.3-13ZM99.88,70.19l-5.81-3.06-5.82,3.06,1.11-6.48-4.7-4.58,6.5-1,2.91-5.89L97,58.18l6.51,1-4.71,4.58Z" style="fill: inherit;"/></g></svg>