<svg xmlns="http://www.w3.org/2000/svg" xmlns:xlink="http://www.w3.org/1999/xlink" preserveAspectRatio="xMidYMid meet" version="1.0" viewBox="-11.8 -12.2 1251.8 843.0" zoomAndPan="magnify" style="fill: rgb(255, 255, 255);" original_string_length="2504"><g id="__id682_s6e9cs1fcb"><path d="M1197.27,417.43c-60.92-94.12-121.3-188.63-182.42-282.66c-13.35-21.89-34.22-37.23-53.15-53.69 c-16.55-33.93-45.77-61.94-82.04-73.54C829.57-10.51,770.25,5.6,734.72,44.77c-30.48,32.28-41.89,79.12-34.42,122.42 c-10.24,30.63-15.73,63.15-10.44,95.38c-19.56-19.95-40.34-45.14-71.26-43.83c-30.97-1.36-51.79,23.83-71.36,43.88 c2.72-23.15,3.16-46.84-2.86-69.51c-2.67-12.33-9.95-24.17-6.8-37.13C548.27,89.63,501.43,21.13,436.73,4.82 C377.7-12.17,309.6,17.06,281.2,71.42c-5.87,14.85-21.5,20.92-32.09,31.7c-19.03,17.18-32.23,39.37-45.92,60.77 C147.71,250.69,92.32,337.53,36.7,424.17c-43.78,71.79-48.54,165.19-13.45,241.4c28.45,63.49,83.59,114.22,149.02,137.61 c64.22,23.4,137.61,20.1,199.36-9.37c64.51-29.8,114.95-87.33,137.32-154.7c20.82,5.92,44.71,2.96,61.21-11.84 c16.84-15.14,32.13-31.94,48.4-47.72c16.36,15.87,31.75,32.81,48.74,48.01c16.41,14.66,40.05,17.43,60.73,11.8 c26.94,82.37,97.18,148.73,181.16,170.33c77.71,21.16,164.6,3.25,227.66-46.89c60.58-46.84,98.2-121.55,99.95-198.15 C1239.94,512.96,1225.28,460.82,1197.27,417.43z M842.68,444.22c22.96-27.13,54.37-47.04,88.78-55.92 c83.54-24.03,178.97,25.53,207.76,107.37c31.02,77.18-3.5,172.86-76.26,212.9c-70.14,42.13-168.29,25.14-220.09-38.2 C787.68,608.24,787.63,506.45,842.68,444.22z M543.66,307.97c8.49-12.77,21.7-22.09,31.94-33.59c10.44-9.56,19.17-22.62,33.4-26.7 c12.28-3.11,26.26-0.1,35,9.37c16.7,16.41,32.96,33.2,49.66,49.56c5.39,62.42,10.49,124.8,15.82,187.22 c-16.6-16.07-32.09-33.3-49.27-48.83c-23.79-20.97-63.54-19.9-86.11,2.43c-15.87,15-30.82,30.92-46.5,46.16 C533.13,431.75,537.5,369.71,543.66,307.97z M217.85,387.91c53.06-13.79,112.18-0.63,154.22,34.66 c60.73,48.44,81.21,139.41,46.75,209.12c-31.7,70.24-113.73,112.57-189.36,97.33C151.11,716.1,88.15,643.77,86.4,564.36 C81.5,484.17,139.8,406.41,217.85,387.91z M551.43,604.94c-9.37,8.64-22.81,8.35-34.56,6.02c4.37-23.93,4.85-48.25,6.99-72.42 c11.5-11.31,22.96-22.67,34.17-34.27c5,23.35,23.98,38.64,39.95,54.61C582.3,574.07,567.79,590.48,551.43,604.94z M682.98,602.81 c-29.42-29.08-58.64-58.35-87.62-87.86c-12.23-12.23-11.55-33.93,0.73-45.87c11.84-12.62,33.88-13.49,46.21-1.12 c23.98,23.25,47.18,47.23,70.97,70.63c2.14,24.22,2.62,48.54,6.94,72.52C707.3,614.41,692.49,613.1,682.98,602.81z" style="fill: inherit;"/></g></svg>